<svg xmlns="http://www.w3.org/2000/svg" viewBox="0 0 212 280" role="img" aria-label="Re:SET">
  <defs>
    <clipPath id="rounded"><rect width="212" height="280" rx="26" /></clipPath>
  </defs>
  <path clip-path="url(#rounded)" fill="#EC5E8E" d="M 0.00 140.00 L 0.00 0.00 L 106.00 0.00 L 212.00 0.00 L 212.00 140.00 L 212.00 280.00 L 106.00 280.00 L 0.00 280.00 L 0.00 140.00 Z M 24.50 277.74 C 32.05 277.27 38.74 276.74 42.00 276.37 C 47.46 275.74 54.97 274.75 57.12 274.38 C 58.23 274.19 60.53 273.79 62.25 273.50 C 65.28 272.98 66.87 272.66 72.12 271.50 C 75.30 270.81 83.52 268.80 85.00 268.37 C 85.62 268.18 86.97 267.80 88.00 267.51 C 90.26 266.88 92.89 266.09 94.75 265.49 C 95.50 265.24 96.97 264.80 98.00 264.50 C 99.03 264.20 100.44 263.75 101.12 263.51 C 101.81 263.27 105.92 261.92 110.25 260.51 C 114.58 259.11 118.69 257.76 119.38 257.52 C 120.81 257.02 121.72 256.73 126.88 255.14 C 133.79 253.00 138.61 251.66 142.50 250.79 C 143.12 250.65 144.07 250.43 144.62 250.29 C 151.09 248.68 160.16 247.07 168.12 246.12 C 169.78 245.93 171.97 245.65 173.00 245.51 C 175.00 245.23 182.21 244.65 188.38 244.26 C 190.44 244.13 195.95 243.95 200.62 243.86 C 205.60 243.76 209.25 243.58 209.44 243.44 C 209.68 243.24 209.75 239.52 209.75 226.35 C 209.75 210.57 209.72 209.50 209.31 209.29 C 209.07 209.16 204.77 209.00 199.75 208.93 C 185.68 208.72 175.73 207.91 161.25 205.76 C 157.44 205.20 150.84 203.96 146.75 203.03 C 145.58 202.76 143.78 202.36 142.75 202.13 C 141.72 201.91 140.37 201.57 139.75 201.39 C 139.13 201.21 137.67 200.81 136.50 200.50 C 135.33 200.20 133.70 199.74 132.88 199.49 C 132.05 199.24 130.59 198.81 129.62 198.53 C 126.75 197.71 121.39 196.02 117.12 194.58 C 114.92 193.84 112.45 193.03 111.62 192.80 C 110.43 192.46 110.11 192.26 110.05 191.82 C 109.98 191.39 110.12 191.24 110.67 191.12 C 111.87 190.88 112.67 190.63 115.50 189.62 C 115.98 189.44 118.06 188.77 120.12 188.12 C 122.19 187.47 124.50 186.75 125.25 186.50 C 127.11 185.91 129.76 185.12 131.88 184.52 C 132.84 184.25 134.25 183.84 135.00 183.61 C 136.50 183.16 142.45 181.62 144.25 181.21 C 144.87 181.07 146.33 180.75 147.50 180.50 C 148.67 180.24 150.41 179.86 151.38 179.65 C 152.34 179.44 153.91 179.15 154.88 179.00 C 155.84 178.86 157.13 178.63 157.75 178.50 C 158.84 178.25 162.44 177.71 166.25 177.22 C 167.28 177.09 169.41 176.81 170.97 176.60 C 172.53 176.40 175.91 176.06 178.47 175.87 C 181.03 175.67 183.41 175.45 183.75 175.38 C 184.66 175.20 198.05 174.76 203.88 174.72 C 206.62 174.71 209.07 174.59 209.31 174.46 C 209.72 174.25 209.75 173.17 209.75 157.25 L 209.75 140.26 L 209.08 140.09 C 208.09 139.84 192.74 140.20 186.12 140.63 C 176.57 141.25 167.29 142.06 165.12 142.49 C 164.44 142.62 163.09 142.80 162.12 142.88 C 159.75 143.09 154.75 143.88 148.62 145.00 C 143.60 145.93 141.85 146.27 140.50 146.60 C 139.75 146.79 138.00 147.19 136.62 147.50 C 135.25 147.81 133.40 148.27 132.52 148.53 C 131.64 148.79 130.75 149.00 130.54 149.00 C 130.33 149.00 129.37 149.23 128.39 149.52 C 125.89 150.25 123.61 150.90 121.88 151.37 C 120.28 151.80 113.63 153.84 112.38 154.29 C 111.96 154.43 110.95 154.75 110.12 155.00 C 109.30 155.25 108.29 155.57 107.88 155.72 C 107.46 155.88 104.37 156.90 101.00 158.00 C 97.63 159.10 94.54 160.12 94.12 160.26 C 92.89 160.70 89.00 161.96 87.12 162.53 C 86.16 162.82 84.92 163.21 84.38 163.38 C 83.83 163.56 82.31 164.01 81.00 164.38 C 79.69 164.75 77.95 165.26 77.12 165.51 C 76.30 165.76 73.71 166.43 71.38 166.99 C 69.04 167.55 66.56 168.17 65.88 168.37 C 65.19 168.56 64.17 168.79 63.62 168.87 C 63.08 168.96 61.61 169.24 60.38 169.50 C 53.42 170.97 41.89 172.59 33.63 173.26 C 31.70 173.42 30.05 173.59 29.97 173.65 C 29.71 173.81 10.98 174.50 6.92 174.50 C 4.85 174.50 3.00 174.62 2.73 174.76 C 2.26 175.01 2.25 175.47 2.25 191.87 C 2.25 203.09 2.33 208.77 2.50 208.88 C 2.65 208.97 5.71 209.09 9.32 209.15 C 12.93 209.21 17.51 209.37 19.50 209.50 C 21.49 209.63 25.43 209.86 28.25 210.01 C 31.07 210.16 33.99 210.38 34.75 210.50 C 35.51 210.62 36.97 210.79 38.00 210.87 C 40.55 211.08 46.93 211.89 50.88 212.50 C 53.93 212.98 55.62 213.29 62.00 214.53 C 64.88 215.09 71.80 216.72 74.75 217.54 C 78.89 218.68 83.30 219.96 85.00 220.50 C 85.75 220.74 87.89 221.42 89.75 222.00 C 91.61 222.59 93.69 223.28 94.38 223.52 C 95.92 224.07 97.88 224.71 98.88 224.99 C 100.61 225.46 102.12 226.16 102.12 226.49 C 102.12 226.69 101.65 226.97 101.00 227.16 C 99.93 227.45 96.89 228.46 92.25 230.05 C 91.08 230.45 89.62 230.93 89.00 231.11 C 88.38 231.29 86.92 231.74 85.75 232.10 C 80.28 233.80 76.34 234.92 71.94 236.02 C 66.84 237.29 65.70 237.55 63.40 238.00 C 62.04 238.26 60.75 238.54 60.53 238.63 C 59.79 238.92 50.10 240.49 43.62 241.36 C 35.39 242.47 22.09 243.37 9.62 243.64 C 6.19 243.72 3.12 243.83 2.81 243.90 L 2.25 244.01 L 2.25 260.99 C 2.25 274.32 2.32 277.99 2.56 278.10 C 2.99 278.30 20.04 278.02 24.50 277.74 Z M 25.88 139.37 C 35.74 138.73 43.45 138.04 48.00 137.40 C 49.45 137.19 51.52 136.90 52.62 136.76 C 55.05 136.44 59.65 135.69 63.38 135.00 C 64.89 134.72 66.75 134.38 67.50 134.25 C 68.25 134.11 69.83 133.78 71.00 133.51 C 75.41 132.49 76.67 132.20 78.06 131.85 C 78.85 131.66 80.15 131.35 80.94 131.16 C 82.30 130.84 83.07 130.62 87.00 129.50 C 87.89 129.25 89.30 128.85 90.12 128.63 C 91.72 128.20 98.37 126.16 99.62 125.71 C 100.04 125.57 101.05 125.25 101.88 125.00 C 102.70 124.75 103.71 124.43 104.12 124.28 C 104.54 124.12 105.89 123.67 107.12 123.26 C 108.36 122.86 109.71 122.41 110.12 122.27 C 110.54 122.12 112.28 121.56 114.00 121.00 C 115.72 120.44 117.46 119.88 117.88 119.73 C 119.25 119.26 123.10 118.01 124.88 117.47 C 125.84 117.17 127.08 116.79 127.62 116.62 C 128.18 116.44 129.69 115.99 131.00 115.62 C 132.31 115.25 134.05 114.74 134.88 114.49 C 135.70 114.25 138.29 113.58 140.62 113.02 C 142.96 112.45 145.44 111.83 146.12 111.63 C 146.81 111.43 147.82 111.21 148.38 111.13 C 148.93 111.06 150.39 110.78 151.62 110.50 C 158.01 109.11 170.39 107.37 178.37 106.73 C 180.29 106.58 181.94 106.41 182.03 106.36 C 182.29 106.20 200.99 105.50 205.08 105.50 C 207.15 105.50 209.00 105.39 209.27 105.24 C 209.74 104.99 209.75 104.14 209.75 53.52 C 209.75 6.82 209.71 2.04 209.35 1.90 C 208.84 1.70 3.16 1.70 2.65 1.90 C 2.29 2.04 2.25 8.35 2.25 70.88 C 2.25 125.70 2.31 139.74 2.56 139.85 C 3.10 140.11 19.87 139.76 25.88 139.37 Z M 52.00 70.75 C 47.02 69.95 43.00 67.55 40.29 63.74 C 38.82 61.69 38.16 60.35 37.48 58.04 C 37.02 56.45 36.96 55.76 37.05 52.91 C 37.17 49.51 37.31 48.92 38.70 46.00 C 39.30 44.74 39.73 44.02 40.75 42.65 C 42.03 40.91 45.38 38.48 47.75 37.56 C 49.66 36.83 52.46 36.25 54.12 36.25 C 56.76 36.25 60.48 37.30 62.99 38.77 C 64.11 39.41 66.36 41.28 67.12 42.20 C 68.17 43.45 70.00 46.31 70.00 46.70 C 70.00 46.88 70.22 47.50 70.48 48.09 C 70.75 48.66 71.09 50.28 71.24 51.68 C 71.70 55.82 70.86 59.44 68.65 62.88 C 67.58 64.53 64.72 67.47 63.59 68.08 C 60.43 69.78 58.99 70.29 56.12 70.75 C 54.45 71.02 53.65 71.02 52.00 70.75 Z" />
</svg>
